<svg width="139" height="42" viewBox="0 0 139 42" xmlns="http://www.w3.org/2000/svg" xmlns:xlink="http://www.w3.org/1999/xlink"><title>Stores/Appstore</title><defs><rect id="a" width="139" height="41.279" rx="4.536"/></defs><g fill="none" fill-rule="evenodd"><g><use fill="#000" xlink:href="#a"/><rect stroke="#A6A6A6" stroke-width="1.134" x=".567" y=".567" width="137.866" height="40.145" rx="4.536"/><rect stroke="#8F8F8F" stroke-width=".567" x=".283" y=".283" width="138.433" height="40.712" rx="4.536"/></g><path d="M53.353 31.701h2.337l-5.115-14.17H48.21L43.096 31.7h2.257l1.306-3.761h5.399l1.295 3.761zM49.28 20.103h.167l2.051 5.99h-4.28l2.062-5.99zm12.604.727c-1.453 0-2.71.727-3.357 1.944h-.157v-1.767h-2.032v14.161h2.11v-5.087h.167c.56 1.13 1.767 1.797 3.289 1.797 2.7 0 4.417-2.131 4.417-5.529s-1.718-5.52-4.437-5.52zm-.599 9.153c-1.767 0-2.876-1.395-2.876-3.624 0-2.24 1.11-3.634 2.886-3.634 1.787 0 2.857 1.365 2.857 3.624 0 2.269-1.07 3.634-2.867 3.634zM72.83 20.83c-1.453 0-2.71.727-3.358 1.944h-.157v-1.767h-2.031v14.161h2.11v-5.087h.167c.56 1.13 1.767 1.797 3.288 1.797 2.7 0 4.417-2.131 4.417-5.529s-1.717-5.52-4.436-5.52zm-.6 9.153c-1.766 0-2.875-1.395-2.875-3.624 0-2.24 1.109-3.634 2.886-3.634 1.786 0 2.856 1.365 2.856 3.624 0 2.269-1.07 3.634-2.866 3.634zm9.504-2.092c.157 2.534 2.267 4.154 5.409 4.154 3.357 0 5.457-1.699 5.457-4.41 0-2.13-1.197-3.309-4.103-3.987l-1.56-.383c-1.846-.432-2.592-1.011-2.592-2.023 0-1.276 1.158-2.111 2.896-2.111 1.649 0 2.788.815 2.994 2.121h2.14c-.128-2.386-2.229-4.066-5.105-4.066-3.092 0-5.153 1.68-5.153 4.204 0 2.082 1.168 3.32 3.73 3.918l1.826.442c1.875.442 2.7 1.09 2.7 2.17 0 1.257-1.297 2.17-3.064 2.17-1.894 0-3.21-.854-3.396-2.2h-2.179zm12.683-9.477v2.642H92.66v1.777h1.757v6.04c0 2.062.932 2.887 3.278 2.887.413 0 .796-.049 1.13-.108v-1.758c-.295.03-.462.05-.786.05-1.05 0-1.512-.492-1.512-1.611v-5.5h2.395v-1.777h-2.395v-2.642h-2.11zm9.738 11.618c-1.836 0-2.866-1.346-2.866-3.683 0-2.318 1.03-3.673 2.866-3.673 1.826 0 2.866 1.355 2.866 3.673 0 2.328-1.04 3.683-2.866 3.683zm0 1.876c3.122 0 5.036-2.092 5.036-5.559 0-3.447-1.924-5.549-5.036-5.549-3.121 0-5.045 2.102-5.045 5.55 0 3.466 1.914 5.558 5.045 5.558zm5.998-.207h2.11v-6.314c0-1.503 1.13-2.514 2.72-2.514.353 0 1.001.068 1.168.127v-2.082c-.226-.059-.628-.088-.933-.088-1.394 0-2.571.766-2.876 1.817h-.157v-1.64h-2.032V31.7zm10.75-9.103c1.56 0 2.581 1.09 2.63 2.769h-5.399c.118-1.67 1.208-2.77 2.768-2.77zm2.62 6.216c-.392.835-1.266 1.296-2.542 1.296-1.688 0-2.778-1.188-2.847-3.064v-.117h7.549v-.737c0-3.359-1.796-5.392-4.77-5.392-3.014 0-4.928 2.17-4.928 5.588s1.874 5.52 4.937 5.52c2.444 0 4.152-1.179 4.633-3.094h-2.032zM45.073 6.469v6.748h2.436c2.01 0 3.174-1.24 3.174-3.395 0-2.123-1.174-3.353-3.174-3.353h-2.436zm1.047.954h1.272c1.397 0 2.225.888 2.225 2.413 0 1.548-.814 2.427-2.225 2.427H46.12v-4.84zm8.247 4.999c-.874 0-1.365-.64-1.365-1.754 0-1.103.49-1.749 1.365-1.749.87 0 1.365.646 1.365 1.75 0 1.108-.496 1.753-1.365 1.753zm0 .893c1.486 0 2.398-.996 2.398-2.647 0-1.641-.916-2.642-2.398-2.642-1.487 0-2.403 1-2.403 2.642 0 1.651.912 2.647 2.403 2.647zm10.275-5.19h-1.005l-.907 3.885h-.08l-1.046-3.886h-.963l-1.047 3.886h-.075l-.912-3.886h-1.019l1.403 5.093h1.033l1.047-3.75h.08l1.05 3.75h1.043l1.398-5.093zm1.277 5.092h1.005v-2.979c0-.795.495-1.29 1.304-1.29.748 0 1.113.406 1.113 1.224v3.045h1.004V9.92c0-1.211-.64-1.894-1.776-1.894-.766 0-1.36.341-1.608.907h-.075v-.809h-.967v5.093zm6.124 0h1.005v-7.08h-1.005v7.08zm4.9-.795c-.874 0-1.365-.64-1.365-1.754 0-1.103.49-1.749 1.365-1.749.87 0 1.365.646 1.365 1.75 0 1.108-.496 1.753-1.365 1.753zm0 .893c1.486 0 2.398-.996 2.398-2.647 0-1.641-.916-2.642-2.398-2.642-1.487 0-2.403 1-2.403 2.642 0 1.651.912 2.647 2.403 2.647zm5.507-.86c-.547 0-.944-.267-.944-.725 0-.45.318-.688 1.019-.734l1.243-.08v.426c0 .63-.56 1.113-1.318 1.113zm-.257.846c.668 0 1.225-.29 1.529-.8h.079v.716h.968v-3.48c0-1.075-.72-1.711-1.996-1.711-1.155 0-1.978.561-2.08 1.436h.972c.112-.36.5-.566 1.06-.566.688 0 1.043.304 1.043.842v.44l-1.379.079c-1.21.074-1.893.603-1.893 1.52 0 .93.715 1.524 1.697 1.524zm6.106 0c.7 0 1.294-.332 1.598-.888h.08v.804h.963v-7.08h-1.005v2.796h-.075c-.276-.561-.865-.893-1.561-.893-1.286 0-2.113 1.02-2.113 2.628 0 1.614.818 2.633 2.113 2.633zm.285-4.358c.841 0 1.37.668 1.37 1.73 0 1.066-.524 1.725-1.37 1.725-.851 0-1.36-.65-1.36-1.73 0-1.07.514-1.725 1.36-1.725zm9.107 3.479c-.874 0-1.365-.64-1.365-1.754 0-1.103.491-1.749 1.365-1.749.87 0 1.365.646 1.365 1.75 0 1.108-.495 1.753-1.365 1.753zm0 .893c1.487 0 2.398-.996 2.398-2.647 0-1.641-.916-2.642-2.398-2.642-1.486 0-2.402 1-2.402 2.642 0 1.651.911 2.647 2.402 2.647zm3.843-.098h1.005v-2.979c0-.795.496-1.29 1.305-1.29.747 0 1.112.406 1.112 1.224v3.045h1.005V9.92c0-1.211-.64-1.894-1.776-1.894-.767 0-1.36.341-1.608.907h-.075v-.809h-.968v5.093zm9.29-6.327v1.258h-.837v.846h.837v2.876c0 .982.444 1.375 1.561 1.375.197 0 .379-.023.538-.052v-.837c-.14.014-.22.024-.374.024-.5 0-.72-.234-.72-.767V8.994h1.14v-.846h-1.14V6.89h-1.005zm3.577 6.327h1.005v-2.974c0-.772.51-1.291 1.332-1.291.757 0 1.136.411 1.136 1.225v3.04h1.005V9.929c0-1.21-.654-1.898-1.8-1.898-.766 0-1.355.341-1.603.912h-.08V6.137h-.995v7.08zm8.223-4.335c.743 0 1.23.519 1.253 1.319h-2.571c.056-.795.575-1.32 1.318-1.32zm1.248 2.96c-.187.397-.603.617-1.21.617-.805 0-1.323-.566-1.356-1.459v-.056h3.594v-.35c0-1.6-.855-2.568-2.271-2.568-1.435 0-2.347 1.033-2.347 2.66 0 1.628.893 2.63 2.351 2.63 1.164 0 1.978-.562 2.207-1.474h-.968z" fill="#FFF"/><g fill="#FFF"><path d="M30.953 20.836c-.03-3.425 2.804-5.092 2.933-5.17-1.605-2.34-4.093-2.66-4.967-2.686-2.09-.22-4.116 1.25-5.18 1.25-1.086 0-2.726-1.229-4.492-1.193-2.274.035-4.4 1.352-5.567 3.397-2.407 4.17-.612 10.296 1.695 13.667 1.153 1.651 2.501 3.493 4.266 3.428 1.726-.07 2.371-1.1 4.454-1.1 2.064 0 2.67 1.1 4.47 1.058 1.852-.028 3.018-1.657 4.132-3.324 1.333-1.89 1.868-3.755 1.89-3.85-.043-.014-3.597-1.371-3.634-5.477M27.554 10.763c.928-1.162 1.564-2.742 1.387-4.346-1.343.06-3.024.93-3.992 2.066-.856 1.001-1.62 2.642-1.423 4.186 1.51.112 3.06-.763 4.028-1.906"/></g></g></svg>