<?xml version="1.0" encoding="UTF-8"?>
<svg width="102px" height="120px" viewBox="0 0 102 120" version="1.1" xmlns="http://www.w3.org/2000/svg" xmlns:xlink="http://www.w3.org/1999/xlink">
    <!-- Generator: Sketch 50.2 (55047) - http://www.bohemiancoding.com/sketch -->
    <title>il-excellent service@3x</title>
    <desc>Created with Sketch.</desc>
    <defs></defs>
    <g id="Landing-Page" stroke="none" stroke-width="1" fill="none" fill-rule="evenodd">
        <g transform="translate(-277.000000, -623.000000)" id="il-excellent-service">
            <g transform="translate(160.000000, 583.000000)">
                <g id="Group-17" fill="#FFFFFF" opacity="0">
                    <rect id="Rectangle-12" x="0" y="0" width="336" height="200"></rect>
                </g>
                <g id="Group-23" transform="translate(117.000000, 40.000000)">
                    <path d="M23.1205176,20.6662393 L90.7119634,20.6662406 C92.7619826,20.6662406 94.4801661,22.2160929 94.6907935,24.2552631 C99.3489622,69.3529052 101.678046,94.0407062 101.678046,98.3186661 C101.678046,104.903837 97.2049142,109.294911 88.7886568,109.294911 C80.3723994,109.294911 26.1371595,109.294911 23.7141054,109.294911 C21.2910513,109.294911 12.7758734,107.6185 12.7758734,97.0657728 C12.7758734,90.2249208 14.8976068,65.9567404 19.1410734,24.2612315 L19.1410822,24.2612324 C19.3488785,22.2194647 21.0682031,20.6662393 23.1205176,20.6662393 Z" id="Path-3" fill="#ffec00" opacity="0.600000024"></path>
                    <g id="002-shopping-bag" fill="#333333" fill-rule="nonzero">
                        <path d="M95.838843,103.809917 L88.946281,26.1322314 C88.822314,24.5950413 87.5330579,23.4297521 85.9710744,23.4297521 L71.4421488,23.4297521 C71.4173554,10.5123967 60.9049587,-2.84217094e-14 47.9876033,-2.84217094e-14 C35.0702479,-2.84217094e-14 24.5578512,10.5123967 24.5330579,23.4297521 L10.0041322,23.4297521 C8.46694215,23.4297521 7.17768595,24.5950413 7.02892562,26.1322314 L0.136363636,103.809917 C0.136363636,103.909091 0.136363636,103.983471 0.136363636,104.082645 C0.136363636,112.735537 8.09504132,119.77686 17.8636364,119.77686 L78.1115702,119.77686 C87.8801653,119.77686 95.838843,112.735537 95.838843,104.082645 C95.838843,103.983471 95.838843,103.909091 95.838843,103.809917 Z M47.9876033,5.95041322 C57.6322314,5.95041322 65.4669421,13.785124 65.4917355,23.4297521 L30.4834711,23.4297521 C30.5082645,13.785124 38.3429752,5.95041322 47.9876033,5.95041322 Z M78.1115702,113.801653 L17.8636364,113.801653 C11.4173554,113.801653 6.16115702,109.512397 6.08677686,104.181818 L12.731405,29.3801653 L24.5330579,29.3801653 L24.5330579,39.8181818 C24.5330579,41.4545455 25.8719008,42.7933884 27.5082645,42.7933884 C29.1446281,42.7933884 30.4834711,41.4545455 30.4834711,39.8181818 L30.4834711,29.3801653 L65.4917355,29.3801653 L65.4917355,39.8181818 C65.4917355,41.4545455 66.8305785,42.7933884 68.4669421,42.7933884 C70.1033058,42.7933884 71.4421488,41.4545455 71.4421488,39.8181818 L71.4421488,29.3801653 L83.2438017,29.3801653 L89.8884298,104.206612 C89.8140496,109.512397 84.5578512,113.801653 78.1115702,113.801653 Z" id="Shape"></path>
                        <path d="M60.3595041,61.9338843 L42.8057851,79.4876033 L35.6404959,72.322314 C34.4752066,71.1570248 32.5909091,71.1570248 31.4256198,72.322314 C30.2603306,73.4876033 30.2603306,75.3719008 31.4256198,76.5371901 L40.6983471,85.8099174 C41.268595,86.3801653 42.0371901,86.677686 42.8057851,86.677686 C43.5743802,86.677686 44.3181818,86.3801653 44.9132231,85.8099174 L64.5743802,66.1487603 C65.7396694,64.9834711 65.7396694,63.0991736 64.5743802,61.9338843 C63.4090909,60.7933884 61.5247934,60.7933884 60.3595041,61.9338843 Z" id="Shape"></path>
                    </g>
                </g>
            </g>
        </g>
    </g>
</svg>
