<?xml version="1.0" encoding="UTF-8"?>
<svg width="38px" height="44px" viewBox="0 0 38 44" version="1.1" xmlns="http://www.w3.org/2000/svg" xmlns:xlink="http://www.w3.org/1999/xlink">
    <!-- Generator: Sketch 49.3 (51167) - http://www.bohemiancoding.com/sketch -->
    <title>ic-trustedpartner@3x</title>
    <desc>Created with Sketch.</desc>
    <defs></defs>
    <g id="Desktop" stroke="none" stroke-width="1" fill="none" fill-rule="evenodd">
        <g id="01-Home" transform="translate(-1024.000000, -2509.000000)">
            <g id="Group-30" transform="translate(128.000000, 2465.000000)">
                <g id="ic-trustedpartner" transform="translate(891.000000, 42.000000)">
                    <rect id="Rectangle-33" fill="#FFFFFF" opacity="0" x="0" y="0" width="48" height="48"></rect>
                    <g id="002-security" transform="translate(5.000000, 2.000000)" fill="#ffec00" fill-rule="nonzero">
                        <path d="M37.7745193,11.2908093 C37.7514254,10.1069023 37.7293812,8.98848372 37.7293812,7.90649302 C37.7293812,7.05882791 37.0245967,6.3716093 36.1547956,6.3716093 C29.4208177,6.3716093 24.2937569,4.48513488 20.0201215,0.43467907 C19.4087624,-0.144893023 18.4358785,-0.144688372 17.8247293,0.43467907 C13.5515138,4.48513488 8.42529282,6.3716093 1.69173481,6.3716093 C0.822143646,6.3716093 0.117149171,7.05882791 0.117149171,7.90649302 C0.117149171,8.98868837 0.0953149171,10.1075163 0.0720110497,11.2916279 C-0.143812155,22.3092279 -0.439414365,37.3983628 18.4066961,43.7660837 C18.5738122,43.8225674 18.7480663,43.8508093 18.9223204,43.8508093 C19.0965746,43.8508093 19.2710387,43.8225674 19.4379448,43.7660837 C38.2855249,37.3981581 37.9903425,22.308614 37.7745193,11.2908093 Z M18.9225304,40.687107 C2.75951381,34.9636279 3.0038895,22.4256744 3.22076243,11.3501581 C3.23377901,10.6854512 3.24637569,10.0412093 3.25519337,9.40965581 C9.5619337,9.15015814 14.6052265,7.2872186 18.9225304,3.62109767 C23.2402541,7.2872186 28.2843867,9.15036279 34.591547,9.40965581 C34.6003646,10.0410047 34.6129613,10.6848372 34.6259779,11.3491349 C34.8426409,22.4250605 35.0868066,34.9634233 18.9225304,40.687107 Z" id="Shape"></path>
                        <path d="M24.3447735,16.5935256 L16.7449834,24.0012837 L13.5019669,20.8400372 C12.8870387,20.2408186 11.890011,20.2408186 11.2752928,20.8400372 C10.6603646,21.4396651 10.6603646,22.4113488 11.2752928,23.0107721 L15.6316464,27.2572837 C15.9390055,27.556893 16.3420994,27.7066977 16.7449834,27.7066977 C17.1478674,27.7066977 17.5509613,27.556893 17.8583204,27.2572837 L26.5712376,18.7642605 C27.1863757,18.1648372 27.1863757,17.1929488 26.5714475,16.5937302 C25.9567293,15.994307 24.9597017,15.9941023 24.3447735,16.5935256 Z" id="Shape"></path>
                    </g>
                </g>
            </g>
        </g>
    </g>
</svg>
