<?xml version="1.0" encoding="UTF-8"?>
<svg width="139px" height="120px" viewBox="0 0 139 120" version="1.1" xmlns="http://www.w3.org/2000/svg" xmlns:xlink="http://www.w3.org/1999/xlink">
    <!-- Generator: Sketch 50.2 (55047) - http://www.bohemiancoding.com/sketch -->
    <title>il-free delivery@3x</title>
    <desc>Created with Sketch.</desc>
    <defs></defs>
    <g id="Landing-Page" stroke="none" stroke-width="1" fill="none" fill-rule="evenodd">
        <g transform="translate(-651.000000, -623.000000)" id="il-free-delivery">
            <g transform="translate(552.000000, 583.000000)">
                <g id="Group-18" fill="#FFFFFF" opacity="0">
                    <rect id="Rectangle-12" x="0" y="0" width="336" height="200"></rect>
                </g>
                <g id="Group-22" transform="translate(99.000000, 40.000000)">
                    <circle id="Oval-4" fill="#ffec00" opacity="0.600000024" cx="84" cy="59" r="55"></circle>
                    <g id="003-percentage" fill="#000000" fill-rule="nonzero">
                        <path d="M113.199552,17.5999103 C101.872197,6.27255605 86.8049327,0.0304035874 70.7959641,0.0304035874 C54.4910314,0.0304035874 39.235426,6.46089686 27.8542601,18.1380269 C26.6165919,19.4026009 26.6434978,21.4474439 27.9080717,22.7120179 C29.1726457,23.9496861 31.2174888,23.9227803 32.4820628,22.6582063 C42.6524664,12.2456502 56.2399103,6.51470852 70.7959641,6.51470852 C100.311659,6.48780269 124.311659,30.4878027 124.311659,60.0034978 C124.311659,89.5191928 100.311659,113.519193 70.7959641,113.519193 C41.2802691,113.519193 17.2802691,89.5191928 17.2802691,60.0034978 L17.2802691,59.330852 L22.6076233,64.6582063 C23.2264574,65.2770404 24.0605381,65.5999103 24.8946188,65.5999103 C25.7286996,65.5999103 26.5358744,65.2770404 27.1816143,64.6582063 C28.4461883,63.3936323 28.4461883,61.3487892 27.1816143,60.0842152 L16.3654709,49.2411659 C15.1008969,47.9765919 13.0560538,47.9765919 11.7914798,49.2411659 L0.948430493,60.0842152 C-0.316143498,61.3487892 -0.316143498,63.3936323 0.948430493,64.6582063 C2.21300448,65.9227803 4.25784753,65.9227803 5.52242152,64.6582063 L10.8497758,59.330852 L10.8497758,60.0034978 C10.8497758,76.0124664 17.0919283,91.0797309 28.4192825,102.407085 C39.7466368,113.734439 54.8139013,119.976592 70.82287,119.976592 C86.8318386,119.976592 101.899103,113.734439 113.226457,102.407085 C124.553812,91.0797309 130.769058,76.0124664 130.769058,60.0034978 C130.769058,43.9945291 124.526906,28.9272646 113.199552,17.5999103 Z" id="Shape"></path>
                        <path d="M87.9618834,38.18287 L48.3026906,77.815157 C47.0381166,79.0797309 47.0381166,81.124574 48.3026906,82.389148 C48.9215247,83.0079821 49.7556054,83.330852 50.5896861,83.330852 C51.4237668,83.330852 52.2309417,83.0079821 52.8766816,82.389148 L92.5358744,42.7299552 C93.8004484,41.4653812 93.8004484,39.4205381 92.5358744,38.1559641 C91.2713004,36.918296 89.2264574,36.918296 87.9618834,38.18287 Z" id="Shape"></path>
                        <path d="M77.5762332,64.8734529 C73.0829596,69.3667265 73.0829596,76.7120179 77.5762332,81.2052915 C79.7556054,83.3846637 82.661435,84.595426 85.7556054,84.595426 C88.8497758,84.595426 91.7556054,83.3846637 93.9349776,81.2052915 C98.4282511,76.7120179 98.4282511,69.3667265 93.9349776,64.8734529 C91.7556054,62.6940807 88.8497758,61.4833184 85.7556054,61.4833184 C82.661435,61.4833184 79.7825112,62.6940807 77.5762332,64.8734529 Z M89.3609865,76.6582063 C88.3923767,77.6268161 87.1278027,78.1380269 85.7556054,78.1380269 C84.3834081,78.1380269 83.1188341,77.5999103 82.1502242,76.6582063 C80.1591928,74.6671749 80.1591928,71.4384753 82.1502242,69.4474439 C83.1188341,68.4788341 84.3834081,67.9676233 85.7556054,67.9676233 C87.1278027,67.9676233 88.3923767,68.5057399 89.3609865,69.4474439 C91.3520179,71.4384753 91.3520179,74.6671749 89.3609865,76.6582063 Z" id="Shape"></path>
                        <path d="M55.9439462,35.3039462 C52.8497758,35.3039462 49.9439462,36.5147085 47.764574,38.6940807 C45.5852018,40.8734529 44.3744395,43.7792825 44.3744395,46.8734529 C44.3744395,49.9676233 45.5852018,52.8734529 47.764574,55.0528251 C49.9439462,57.2321973 52.8497758,58.4429596 55.9439462,58.4429596 C59.0381166,58.4429596 61.9439462,57.2321973 64.1233184,55.0528251 C66.3026906,52.8734529 67.5134529,49.9676233 67.5134529,46.8734529 C67.5134529,43.7792825 66.3026906,40.8734529 64.1233184,38.6940807 C61.9170404,36.5147085 59.0381166,35.3039462 55.9439462,35.3039462 Z M59.5493274,50.4788341 C58.5807175,51.4474439 57.3161435,51.9586547 55.9439462,51.9586547 C54.5717489,51.9586547 53.3071749,51.4205381 52.338565,50.4788341 C51.3699552,49.5102242 50.8587444,48.2456502 50.8587444,46.8734529 C50.8587444,45.5012556 51.396861,44.2366816 52.338565,43.2680717 C53.3071749,42.2994619 54.5717489,41.7882511 55.9439462,41.7882511 C57.3161435,41.7882511 58.5807175,42.3263677 59.5493274,43.2680717 C60.5179372,44.2366816 61.029148,45.5012556 61.029148,46.8734529 C61.029148,48.2187444 60.5179372,49.5102242 59.5493274,50.4788341 Z" id="Shape"></path>
                    </g>
                </g>
            </g>
        </g>
    </g>
</svg>
