<svg width="139" height="41" viewBox="0 0 139 41" xmlns="http://www.w3.org/2000/svg" xmlns:xlink="http://www.w3.org/1999/xlink"><title>Playstore</title><defs><linearGradient x1="58.917%" y1="16.35%" x2="90.81%" y2="59.036%" id="a"><stop stop-color="#FF177B" offset="0%"/><stop stop-color="#FFEC73" offset="100%"/></linearGradient><linearGradient x1="37.103%" y1="22.277%" x2="0%" y2="65.053%" id="b"><stop stop-color="#064AA2" offset="0%"/><stop stop-color="#63FFD4" offset="100%"/></linearGradient><path d="M14.787 13.855L.532 0C.199.08 0 .334 0 .764v26.511c0 .364.143.58.32.654l14.467-14.074z" id="c"/><path d="M.589 14.05l8.24-4.642 3.639-2.068 5.992-3.31L14.47.056.003 14.131c.16.053.445.024.667-.088" id="e"/><linearGradient x1="78.645%" y1="50%" x2="2.495%" y2="91.45%" id="f"><stop stop-color="#FF4521" offset="0%"/><stop stop-color="#8A33DB" offset="100%"/></linearGradient><linearGradient x1="22.303%" y1="-24.186%" x2="57.879%" y2="100%" id="h"><stop stop-color="#00A3B5" offset="0%"/><stop stop-color="#D6FFA1" offset="100%"/></linearGradient><path d="M.865.234C.59.084.318.04.097.101l14.267 13.876 3.947-3.83-5.95-3.38-8.993-5.11L.865.233z" id="i"/></defs><g fill="none" fill-rule="evenodd"><rect width="139" height="40.228" rx="5.67" fill="#000"/><rect stroke="#A6A6A6" stroke-width="1.134" x=".567" y=".567" width="137.866" height="39.094" rx="5.67"/><rect stroke="#8F8F8F" stroke-width=".567" x=".283" y=".283" width="138.433" height="39.661" rx="5.67"/><g fill-rule="nonzero" fill="#FFF"><path d="M73.66 13.373c-1.859 0-3.365-1.477-3.365-3.298 0-1.82 1.506-3.297 3.365-3.297 1.858 0 3.365 1.476 3.365 3.297 0 1.821-1.507 3.298-3.365 3.298zm0-1.008c1.29 0 2.337-1.025 2.337-2.29 0-1.264-1.047-2.29-2.337-2.29-1.29 0-2.337 1.026-2.337 2.29 0 1.265 1.046 2.29 2.337 2.29zM50.851 10.442v2.015h2.711v.733h-3.739V7.053h3.74v.733H50.85v1.923h2.43v.733zM57.208 7.786v5.404H56.18V7.786h-1.59v-.733h4.207v.733zM66.369 7.786v5.404H65.34V7.786h-1.589v-.733h4.207v.733zM61.788 7.053h1.028v6.137h-1.028zM78.474 7.053h-.608v6.137h1.028V8.4l2.992 4.79h1.028V7.053h-1.028v4.49l-2.805-4.49zM45.97 9.816h2.816l-.028.873H45.97z"/><path d="M48.232 7.762c-.548-.566-1.35-.892-2.303-.892-1.825 0-3.304 1.447-3.304 3.233 0 1.785 1.48 3.23 3.304 3.233 1.854.016 3.401-1.264 3.092-3.487v-.033h-.823c.007.093.01.189.007.287.002 1.588-.932 2.332-2.249 2.332-1.316 0-2.383-1.044-2.383-2.332 0-1.289 1.067-2.333 2.383-2.333.659 0 1.23.22 1.631.622l.645-.63z"/></g><g fill-rule="nonzero" fill="#FFF"><path d="M100.955 18.044h5.3s3.05.509 3.05 3.941c0 3.433-3.05 3.942-3.05 3.942h-5.3v-7.883zm1.028 1.907v4.23h3.598s1.637 0 1.637-2.115-1.637-2.115-1.637-2.115h-3.598z"/><path d="M100.488 18.044h1.87v12.823h-1.87zM110.396 18.044h1.87v12.823h-1.87zM119.195 29.95c-.515.417-1.338.809-2.639.888-2.978.182-2.98-2.481-2.98-2.66 0-.18-.147-2.352 2.223-2.698 1.678-.244 2.853.163 3.396.422v-.377c-.133-.499-.547-1.416-1.786-1.416-1.702 0-2.078.902-2.078.902l-1.557-.902s.871-1.76 3.486-1.76c3.251 0 3.805 2.197 3.805 2.937v5.577h-1.87v-.913zm-.134-2.746s-3.601-.951-3.727 1.031c-.125 1.983 3.456 1.03 3.776-.375 0-.447-.049-.656-.049-.656zM124.572 30.38l-1.743 4.06h1.869l5.058-11.772h-1.87l-2.379 5.537-2.398-5.581h-1.87zM96.302 25.621l-5.913 2.395s.382 1.324 2.16 1.333c1.392.007 2.178-1.21 2.178-1.21l1.5.996s-1.21 1.919-3.69 1.919c-3.046 0-4.388-2.61-4.388-4.306 0-1.633 1.065-4.399 4.2-4.399 3.133 0 3.953 3.272 3.953 3.272zm-2.25-.678s-.743-1.11-1.884-.905c-2.414.433-2.11 2.503-2.11 2.503l3.994-1.598zM85.344 18.044h1.978V30.84h-1.978zM82.18 22.627l1.828.016v8.074c0 2.063-1.254 4.24-4.205 4.24-2.95 0-3.904-2.562-3.904-2.562l1.68-.692s.512 1.58 2.311 1.58c2.05 0 2.29-1.828 2.29-2.453v-.877s-.71 1.088-2.471 1.088c-1.91 0-4.18-1.603-4.18-4.337 0-2.733 2.137-4.297 4.202-4.354 1.653-.045 2.448 1.076 2.448 1.076v-.799zM79.864 29.4c1.333 0 2.414-1.197 2.414-2.673s-1.08-2.673-2.414-2.673-2.414 1.197-2.414 2.673 1.08 2.673 2.414 2.673zM70.258 31.05c-2.458 0-4.45-1.947-4.45-4.35 0-2.403 1.992-4.351 4.45-4.351s4.45 1.948 4.45 4.35c0 2.404-1.992 4.351-4.45 4.351zm-.03-1.706c1.382 0 2.502-1.184 2.502-2.644 0-1.46-1.12-2.645-2.501-2.645-1.382 0-2.502 1.184-2.502 2.645 0 1.46 1.12 2.644 2.502 2.644zM60.63 31.05c-2.458 0-4.45-1.947-4.45-4.35 0-2.403 1.992-4.351 4.45-4.351 2.457 0 4.45 1.948 4.45 4.35 0 2.404-1.993 4.351-4.45 4.351zm-.03-1.706c1.382 0 2.502-1.184 2.502-2.644 0-1.46-1.12-2.645-2.501-2.645-1.382 0-2.502 1.184-2.502 2.645 0 1.46 1.12 2.644 2.502 2.644z"/><g><path d="M49.139 23.728h5.875l-.058 1.82h-5.817z"/><path d="M53.858 19.446c-1.144-1.18-2.817-1.86-4.807-1.86-3.807 0-6.893 3.017-6.893 6.74 0 3.722 3.086 6.734 6.893 6.739 3.871.034 7.1-2.635 6.454-7.269v-.068h-1.716c.013.194.018.393.014.597.004 3.31-1.946 4.863-4.693 4.863s-4.974-2.177-4.974-4.863c0-2.685 2.227-4.862 4.974-4.862 1.374 0 2.565.46 3.403 1.298l1.345-1.315z"/></g></g><g><path d="M12.785 6.766L1.307.245C.67-.117.035.103.035.859V27.425c0 .567.453.812 1.007.498l11.743-6.672 2.28-1.295 3.67-2.084s5.048-2.87 5.72-3.25c.67-.38.605-.904.04-1.205-.567-.3-5.76-3.27-5.76-3.27l-5.95-3.38z" fill="url(#a)" fill-rule="nonzero" transform="translate(10 6)"/><path d="M14.787 13.855L.532 0C.199.08 0 .334 0 .764v26.511c0 .364.143.58.32.654l14.467-14.074z" fill-rule="nonzero" fill="url(#b)" transform="translate(10 6.11)"/><g transform="translate(10 6.11)"><mask id="d" fill="#fff"><use xlink:href="#c"/></mask><path d="M18.723 10.037l-5.957-3.382c-.02.05-10.858-6.122-11.49-6.437C.635-.192 0 .028 0 .764V27.384c0 .584.453.83.957.545.603-.344 11.788-6.714 11.809-6.764l5.957-3.382c-.03.047 5.016-2.827 5.639-3.164.718-.427.654-.95.106-1.2-.584-.352-5.776-3.329-5.745-3.382" mask="url(#d)"/></g><g transform="translate(10.317 19.91)"><mask id="g" fill="#fff"><use xlink:href="#e"/></mask><path d="M12.449-7.146c-.021.049-10.858-6.122-11.49-6.437-.642-.41-1.276-.19-1.276.545V13.583c0 .584.453.83.957.545.603-.344 11.788-6.714 11.809-6.764l5.957-3.382c-.03.047 5.015-2.828 5.638-3.164.719-.427.654-.95.107-1.2-.585-.352-5.776-3.33-5.745-3.382l-5.957-3.382z" fill="url(#f)" fill-rule="nonzero" mask="url(#g)"/></g><g><path d="M.865.234C.59.084.318.04.097.101l14.267 13.876 3.947-3.83-5.95-3.38-8.993-5.11L.865.233z" fill-rule="nonzero" fill="url(#h)" transform="translate(10.423 6)"/><g transform="translate(10.423 6)"><mask id="j" fill="#fff"><use xlink:href="#i"/></mask><path d="M18.3 10.146l-5.957-3.382C12.322 6.814 1.485.642.853.327.211-.083-.423.137-.423.873V27.493c0 .584.453.83.957.545.603-.344 11.788-6.714 11.809-6.764l5.957-3.382c-.03.047 5.015-2.827 5.638-3.164.719-.426.654-.95.107-1.2-.585-.352-5.776-3.329-5.745-3.382" mask="url(#j)"/></g></g></g></g></svg>