<?xml version="1.0" encoding="UTF-8"?>
<svg width="137px" height="128px" viewBox="0 0 137 128" version="1.1" xmlns="http://www.w3.org/2000/svg" xmlns:xlink="http://www.w3.org/1999/xlink">
    <!-- Generator: Sketch 50.2 (55047) - http://www.bohemiancoding.com/sketch -->
    <title>il-daily discount@3x</title>
    <desc>Created with Sketch.</desc>
    <defs></defs>
    <g id="Landing-Page" stroke="none" stroke-width="1" fill="none" fill-rule="evenodd">
        <g transform="translate(-1052.000000, -618.000000)" id="il-daily-discount">
            <g transform="translate(952.000000, 583.000000)">
                <g id="Group-24" transform="translate(100.000000, 35.000000)">
                    <rect id="Rectangle-17" fill="#ffec00" opacity="0.600000024" transform="translate(94.432242, 38.432242) rotate(-18.000000) translate(-94.432242, -38.432242) " x="63.9322421" y="7.93224208" width="61" height="61" rx="3"></rect>
                    <g id="001-trolley" transform="translate(0.000000, 8.000000)" fill="#000000" fill-rule="nonzero">
                        <path d="M136.627042,77.2991549 C135.979155,75.2991549 133.810141,74.2287324 131.810141,74.8766197 L71.2749296,94.9329577 C68.4016901,90.2850704 63.2749296,87.2146479 57.4157746,87.2146479 C57.1904225,87.2146479 56.9650704,87.2146479 56.7397183,87.2146479 C56.4580282,87.2146479 56.148169,87.2428169 55.8664789,87.2709859 L31.8383099,14.9047887 C31.5284507,13.9470423 30.8242254,13.1583099 29.9228169,12.7076056 L5.50028169,0.425915493 C3.61295775,-0.503661972 1.33126761,0.228732394 0.401690141,2.11605634 C-0.527887324,4.00338028 0.204507042,6.28507042 2.09183099,7.21464789 L25.1340845,18.7921127 L48.6552113,89.7780282 C47.4721127,90.5385915 46.3735211,91.44 45.3876056,92.5104225 C42.4298592,95.7216901 40.9087324,99.8907042 41.0777465,104.228732 C41.4439437,113.017465 48.5988732,119.890704 57.3876056,119.890704 C57.6129577,119.890704 57.8383099,119.890704 58.063662,119.890704 C67.0495775,119.524507 74.063662,111.918873 73.6974648,102.904789 C73.6974648,102.679437 73.6692958,102.425915 73.6411268,102.200563 L134.204507,82.1442254 C136.204507,81.468169 137.27493,79.2991549 136.627042,77.2991549 Z M57.7538028,112.256901 C52.9087324,112.454085 48.8805634,108.707606 48.6833803,103.918873 C48.5988732,101.580845 49.4157746,99.355493 50.9932394,97.6653521 C52.5707042,95.9470423 54.7115493,94.9611268 57.0495775,94.8766197 C57.1622535,94.8766197 57.3030986,94.8766197 57.4157746,94.8766197 C62.091831,94.8766197 65.9228169,98.5385915 66.12,103.242817 C66.2890141,108.00338 62.5425352,112.059718 57.7538028,112.256901 Z" id="Shape"></path>
                        <path d="M64.3453521,83.5808451 C64.8805634,85.1864789 66.3735211,86.2005634 67.9509859,86.2005634 C68.3453521,86.2005634 68.7397183,86.1442254 69.1340845,86.0033803 L127.612958,66.6230986 C128.570704,66.3132394 129.359437,65.6090141 129.810141,64.7076056 C130.260845,63.8061972 130.345352,62.7639437 130.035493,61.8061972 L110.852394,3.8343662 C110.542535,2.87661972 109.83831,2.08788732 108.936901,1.6371831 C108.035493,1.18647887 106.993239,1.10197183 106.035493,1.41183099 L76.7960563,11.1301408 L47.5566197,20.8202817 C45.5566197,21.468169 44.4861972,23.6371831 45.1340845,25.6371831 L64.3453521,83.5808451 Z M75.5847887,19.524507 L80.2326761,33.5808451 C80.7678873,35.1864789 82.2608451,36.2005634 83.8383099,36.2005634 C84.2326761,36.2005634 84.6270423,36.1442254 85.0214085,36.0033803 C87.0214085,35.355493 88.091831,33.1864789 87.4439437,31.1864789 L82.7960563,17.1301408 L104.824225,9.8343662 L121.641127,60.5949296 L70.3735211,77.5808451 L53.5566197,26.8484507 L75.5847887,19.524507 Z" id="Shape"></path>
                    </g>
                </g>
            </g>
        </g>
    </g>
</svg>
